<?xml version="1.0" standalone="no"?>
<!DOCTYPE svg PUBLIC "-//W3C//DTD SVG 20010904//EN"
 "http://www.w3.org/TR/2001/REC-SVG-20010904/DTD/svg10.dtd">
<svg version="1.0" xmlns="http://www.w3.org/2000/svg"
 width="1024.000000pt" height="1024.000000pt" viewBox="0 0 1024.000000 1024.000000"
 preserveAspectRatio="xMidYMid meet">
<metadata>
Created by potrace 1.14, written by Peter Selinger 2001-2017
</metadata>
<g transform="translate(0.000000,1024.000000) scale(0.100000,-0.100000)"
fill="#000000" stroke="none">
<path d="M2380 8919 c-336 -38 -691 -170 -940 -346 -122 -87 -296 -262 -382
-383 -129 -181 -234 -423 -278 -638 -22 -109 -43 -343 -31 -355 4 -4 122 -6
262 -5 l254 3 6 110 c22 368 179 677 453 889 193 150 378 230 631 272 122 21
430 24 555 5 667 -98 1040 -544 1040 -1246 0 -232 -35 -391 -126 -565 -166
-321 -502 -551 -921 -630 -165 -31 -310 -40 -640 -40 l-303 0 0 -220 0 -220
303 0 c444 0 649 -19 886 -80 500 -130 813 -455 896 -928 34 -189 29 -463 -10
-655 -33 -158 -101 -323 -188 -452 -91 -136 -281 -292 -449 -370 -367 -169
-924 -190 -1329 -49 -191 66 -358 168 -505 306 -240 228 -364 499 -390 851
l-7 97 -260 0 -260 0 6 -114 c26 -445 182 -802 481 -1102 147 -147 284 -244
471 -337 351 -174 699 -246 1140 -234 465 12 826 121 1147 347 119 84 305 269
390 390 203 287 308 648 308 1054 -1 339 -85 630 -259 888 -178 266 -456 468
-806 587 l-119 41 34 11 c19 7 86 38 150 69 442 218 737 574 852 1024 26 103
36 406 19 553 -35 299 -125 558 -269 772 -100 150 -296 337 -457 439 -209 130
-489 222 -791 257 -139 16 -438 18 -564 4z"/>
<path d="M7230 8919 c-241 -28 -463 -93 -675 -199 -281 -140 -510 -341 -682
-600 -109 -163 -213 -407 -262 -616 -24 -105 -51 -320 -51 -412 l0 -62 258 2
257 3 6 112 c24 405 159 715 421 969 134 130 263 212 433 278 368 141 889 120
1225 -49 111 -56 185 -109 277 -198 169 -164 275 -366 330 -627 28 -133 25
-490 -4 -623 -88 -389 -314 -773 -786 -1337 -57 -69 -593 -678 -1191 -1355
l-1086 -1230 0 -202 0 -203 1965 0 1965 0 0 220 0 220 -1645 2 -1645 3 416
470 c1251 1412 1471 1662 1597 1814 754 907 1022 1513 957 2162 -31 304 -119
557 -274 784 -76 112 -243 280 -361 363 -234 165 -563 278 -909 311 -126 13
-426 12 -536 0z"/>
<path d="M670 1470 l0 -180 4485 0 4485 0 0 180 0 180 -4485 0 -4485 0 0 -180z"/>
</g>
</svg>
